<svg xmlns="http://www.w3.org/2000/svg" width="16" height="15" fill="none" viewBox="0 0 16 15">
  <g clip-path="url(#a)">
    <path fill="#0F1" fill-opacity=".5" d="M4.436 15c2.45 0 4.435-1.98 4.435-4.421a4.428 4.428 0 0 0-4.435-4.421A4.428 4.428 0 0 0 0 10.579 4.428 4.428 0 0 0 4.436 15Z"/>
    <path fill="#fff" d="M4.356 11.921h-.853V9.165h.891c.268 0 .498.055.689.166.19.11.337.266.439.472.101.204.152.45.152.735 0 .287-.051.534-.154.741a1.094 1.094 0 0 1-.448.476c-.196.11-.435.166-.716.166Zm-.518-.296h.497c.228 0 .418-.044.568-.132a.814.814 0 0 0 .336-.375c.074-.163.111-.356.111-.58a1.38 1.38 0 0 0-.11-.575.805.805 0 0 0-.326-.371 1.036 1.036 0 0 0-.541-.13h-.535v2.163Z"/>
    <path fill="red" fill-opacity=".5" d="M11.564 15C14.014 15 16 13.02 16 10.579a4.428 4.428 0 0 0-4.436-4.421 4.428 4.428 0 0 0-4.435 4.421A4.428 4.428 0 0 0 11.564 15Z"/>
    <path fill="#fff" d="M11.485 11.921h-.853V9.165h.89c.27 0 .499.055.69.166.19.11.337.266.438.472.102.204.153.45.153.735 0 .287-.051.534-.154.741a1.093 1.093 0 0 1-.448.476 1.44 1.44 0 0 1-.716.166Zm-.518-.296h.496c.23 0 .419-.044.569-.132a.814.814 0 0 0 .336-.375c.074-.163.11-.356.11-.58 0-.223-.036-.414-.108-.575a.806.806 0 0 0-.327-.371 1.036 1.036 0 0 0-.542-.13h-.534v2.163Z"/>
    <path fill="#02F" fill-opacity=".5" d="M8 8.842c2.45 0 4.436-1.98 4.436-4.421A4.428 4.428 0 0 0 8 0a4.428 4.428 0 0 0-4.436 4.421A4.428 4.428 0 0 0 8 8.842Z"/>
    <path fill="#fff" d="M7.92 5.763h-.853V3.007h.892c.268 0 .497.055.688.166.191.11.337.267.439.472.102.205.153.45.153.735 0 .287-.052.534-.154.741a1.094 1.094 0 0 1-.449.477 1.44 1.44 0 0 1-.715.165Zm-.518-.296H7.9c.229 0 .418-.044.569-.132a.814.814 0 0 0 .336-.375c.074-.163.11-.356.11-.58 0-.223-.036-.414-.109-.575a.805.805 0 0 0-.327-.371 1.036 1.036 0 0 0-.54-.13h-.536v2.163Z"/>
  </g>
  <defs>
    <clipPath id="a">
      <path fill="#fff" d="M0 0h16v15H0z"/>
    </clipPath>
  </defs>
</svg>
